<svg xmlns="http://www.w3.org/2000/svg" xmlns:xlink="http://www.w3.org/1999/xlink" width="1920" zoomAndPan="magnify" viewBox="0 0 1440 809.999993" height="1080" preserveAspectRatio="xMidYMid meet" version="1.0"><defs><filter x="0%" y="0%" width="100%" height="100%" id="df66e3f354"><feColorMatrix values="0 0 0 0 1 0 0 0 0 1 0 0 0 0 1 0 0 0 1 0" color-interpolation-filters="sRGB"/></filter><mask id="92e2cfe577"><g filter="url(#df66e3f354)"><rect x="-144" width="1728" fill="#000000" y="-80.999999" height="971.999992" fill-opacity="0.14"/></g></mask><clipPath id="f84420af97"><path d="M 0.152344 0.929688 L 353.210938 0.929688 L 353.210938 353.988281 L 0.152344 353.988281 Z M 0.152344 0.929688 " clip-rule="nonzero"/></clipPath><clipPath id="7808686d5b"><path d="M 176.683594 0.929688 C 79.1875 0.929688 0.152344 79.964844 0.152344 177.460938 C 0.152344 274.953125 79.1875 353.988281 176.683594 353.988281 C 274.175781 353.988281 353.210938 274.953125 353.210938 177.460938 C 353.210938 79.964844 274.175781 0.929688 176.683594 0.929688 Z M 176.683594 0.929688 " clip-rule="nonzero"/></clipPath><clipPath id="89f79380d2"><rect x="0" width="354" y="0" height="355"/></clipPath><clipPath id="d25fbed5d4"><path d="M 542.34375 266.125 L 865.019531 266.125 L 865.019531 588.796875 L 542.34375 588.796875 Z M 542.34375 266.125 " clip-rule="nonzero"/></clipPath><clipPath id="59df13d505"><path d="M 703.683594 266.125 C 614.578125 266.125 542.34375 338.355469 542.34375 427.460938 C 542.34375 516.5625 614.578125 588.796875 703.683594 588.796875 C 792.785156 588.796875 865.019531 516.5625 865.019531 427.460938 C 865.019531 338.355469 792.785156 266.125 703.683594 266.125 Z M 703.683594 266.125 " clip-rule="nonzero"/></clipPath><clipPath id="165c794d34"><path d="M 567.015625 287.503906 L 840.765625 287.503906 L 840.765625 560.503906 L 567.015625 560.503906 Z M 567.015625 287.503906 " clip-rule="nonzero"/></clipPath><clipPath id="23d6141791"><path d="M 504.472656 235.269531 L 549.832031 235.269531 L 549.832031 280.625 L 504.472656 280.625 Z M 504.472656 235.269531 " clip-rule="nonzero"/></clipPath><clipPath id="f5cefb7d2c"><path d="M 527.152344 235.269531 C 514.628906 235.269531 504.472656 245.421875 504.472656 257.945312 C 504.472656 270.472656 514.628906 280.625 527.152344 280.625 C 539.675781 280.625 549.832031 270.472656 549.832031 257.945312 C 549.832031 245.421875 539.675781 235.269531 527.152344 235.269531 Z M 527.152344 235.269531 " clip-rule="nonzero"/></clipPath><clipPath id="3426b878be"><path d="M 542.34375 133.300781 L 578.070312 133.300781 L 578.070312 169.027344 L 542.34375 169.027344 Z M 542.34375 133.300781 " clip-rule="nonzero"/></clipPath><clipPath id="69795f29e7"><path d="M 560.207031 133.300781 C 550.34375 133.300781 542.34375 141.296875 542.34375 151.164062 C 542.34375 161.027344 550.34375 169.027344 560.207031 169.027344 C 570.070312 169.027344 578.070312 161.027344 578.070312 151.164062 C 578.070312 141.296875 570.070312 133.300781 560.207031 133.300781 Z M 560.207031 133.300781 " clip-rule="nonzero"/></clipPath><clipPath id="7d2098e6db"><path d="M 431.742188 163.242188 L 454.417969 163.242188 L 454.417969 185.917969 L 431.742188 185.917969 Z M 431.742188 163.242188 " clip-rule="nonzero"/></clipPath><clipPath id="21b1bbe7ed"><path d="M 443.078125 163.242188 C 436.816406 163.242188 431.742188 168.316406 431.742188 174.578125 C 431.742188 180.84375 436.816406 185.917969 443.078125 185.917969 C 449.34375 185.917969 454.417969 180.84375 454.417969 174.578125 C 454.417969 168.316406 449.34375 163.242188 443.078125 163.242188 Z M 443.078125 163.242188 " clip-rule="nonzero"/></clipPath><clipPath id="69a36f24d5"><path d="M 397.722656 248.402344 L 420.402344 248.402344 L 420.402344 271.078125 L 397.722656 271.078125 Z M 397.722656 248.402344 " clip-rule="nonzero"/></clipPath><clipPath id="4976d8da9b"><path d="M 409.0625 248.402344 C 402.800781 248.402344 397.722656 253.476562 397.722656 259.738281 C 397.722656 266.003906 402.800781 271.078125 409.0625 271.078125 C 415.324219 271.078125 420.402344 266.003906 420.402344 259.738281 C 420.402344 253.476562 415.324219 248.402344 409.0625 248.402344 Z M 409.0625 248.402344 " clip-rule="nonzero"/></clipPath><clipPath id="2bee6714e5"><path d="M 443.078125 476.5625 L 465.757812 476.5625 L 465.757812 499.242188 L 443.078125 499.242188 Z M 443.078125 476.5625 " clip-rule="nonzero"/></clipPath><clipPath id="d8f27434ca"><path d="M 454.417969 476.5625 C 448.15625 476.5625 443.078125 481.640625 443.078125 487.902344 C 443.078125 494.164062 448.15625 499.242188 454.417969 499.242188 C 460.683594 499.242188 465.757812 494.164062 465.757812 487.902344 C 465.757812 481.640625 460.683594 476.5625 454.417969 476.5625 Z M 454.417969 476.5625 " clip-rule="nonzero"/></clipPath><clipPath id="128cda0839"><path d="M 919.671875 237.0625 L 942.347656 237.0625 L 942.347656 259.738281 L 919.671875 259.738281 Z M 919.671875 237.0625 " clip-rule="nonzero"/></clipPath><clipPath id="fc9f32d224"><path d="M 931.007812 237.0625 C 924.746094 237.0625 919.671875 242.136719 919.671875 248.402344 C 919.671875 254.664062 924.746094 259.738281 931.007812 259.738281 C 937.273438 259.738281 942.347656 254.664062 942.347656 248.402344 C 942.347656 242.136719 937.273438 237.0625 931.007812 237.0625 Z M 931.007812 237.0625 " clip-rule="nonzero"/></clipPath><clipPath id="6d95ba58d2"><path d="M 908.332031 453.882812 L 931.011719 453.882812 L 931.011719 476.5625 L 908.332031 476.5625 Z M 908.332031 453.882812 " clip-rule="nonzero"/></clipPath><clipPath id="7dd03a7923"><path d="M 919.671875 453.882812 C 913.40625 453.882812 908.332031 458.960938 908.332031 465.222656 C 908.332031 471.484375 913.40625 476.5625 919.671875 476.5625 C 925.933594 476.5625 931.007812 471.484375 931.007812 465.222656 C 931.007812 458.960938 925.933594 453.882812 919.671875 453.882812 Z M 919.671875 453.882812 " clip-rule="nonzero"/></clipPath><clipPath id="fb5d2554ad"><path d="M 1039.417969 203.042969 L 1062.097656 203.042969 L 1062.097656 225.722656 L 1039.417969 225.722656 Z M 1039.417969 203.042969 " clip-rule="nonzero"/></clipPath><clipPath id="81cd3d1b1f"><path d="M 1050.757812 203.042969 C 1044.496094 203.042969 1039.417969 208.121094 1039.417969 214.382812 C 1039.417969 220.644531 1044.496094 225.722656 1050.757812 225.722656 C 1057.019531 225.722656 1062.097656 220.644531 1062.097656 214.382812 C 1062.097656 208.121094 1057.019531 203.042969 1050.757812 203.042969 Z M 1050.757812 203.042969 " clip-rule="nonzero"/></clipPath><clipPath id="09dc9990a6"><path d="M 635.945312 191.703125 L 658.625 191.703125 L 658.625 214.382812 L 635.945312 214.382812 Z M 635.945312 191.703125 " clip-rule="nonzero"/></clipPath><clipPath id="ebb3ceaf83"><path d="M 647.285156 191.703125 C 641.023438 191.703125 635.945312 196.78125 635.945312 203.042969 C 635.945312 209.304688 641.023438 214.382812 647.285156 214.382812 C 653.546875 214.382812 658.625 209.304688 658.625 203.042969 C 658.625 196.78125 653.546875 191.703125 647.285156 191.703125 Z M 647.285156 191.703125 " clip-rule="nonzero"/></clipPath><clipPath id="c298b03759"><path d="M 748.566406 169.027344 L 771.242188 169.027344 L 771.242188 191.703125 L 748.566406 191.703125 Z M 748.566406 169.027344 " clip-rule="nonzero"/></clipPath><clipPath id="0007e873bc"><path d="M 759.902344 169.027344 C 753.640625 169.027344 748.566406 174.101562 748.566406 180.363281 C 748.566406 186.628906 753.640625 191.703125 759.902344 191.703125 C 766.167969 191.703125 771.242188 186.628906 771.242188 180.363281 C 771.242188 174.101562 766.167969 169.027344 759.902344 169.027344 Z M 759.902344 169.027344 " clip-rule="nonzero"/></clipPath><clipPath id="1d1444d491"><path d="M 868.5625 153.726562 L 883.863281 153.726562 L 883.863281 169.027344 L 868.5625 169.027344 Z M 868.5625 153.726562 " clip-rule="nonzero"/></clipPath><clipPath id="875c3b7414"><path d="M 876.210938 153.726562 C 871.988281 153.726562 868.5625 157.152344 868.5625 161.375 C 868.5625 165.601562 871.988281 169.027344 876.210938 169.027344 C 880.4375 169.027344 883.863281 165.601562 883.863281 161.375 C 883.863281 157.152344 880.4375 153.726562 876.210938 153.726562 Z M 876.210938 153.726562 " clip-rule="nonzero"/></clipPath><clipPath id="a0bdc3698b"><path d="M 959.660156 302.191406 L 974.960938 302.191406 L 974.960938 317.492188 L 959.660156 317.492188 Z M 959.660156 302.191406 " clip-rule="nonzero"/></clipPath><clipPath id="200f3b7ff3"><path d="M 967.308594 302.191406 C 963.085938 302.191406 959.660156 305.617188 959.660156 309.84375 C 959.660156 314.066406 963.085938 317.492188 967.308594 317.492188 C 971.535156 317.492188 974.960938 314.066406 974.960938 309.84375 C 974.960938 305.617188 971.535156 302.191406 967.308594 302.191406 Z M 967.308594 302.191406 " clip-rule="nonzero"/></clipPath><clipPath id="a835c64dd9"><path d="M 1050.757812 450.660156 L 1066.058594 450.660156 L 1066.058594 465.957031 L 1050.757812 465.957031 Z M 1050.757812 450.660156 " clip-rule="nonzero"/></clipPath><clipPath id="1890a45d36"><path d="M 1058.40625 450.660156 C 1054.183594 450.660156 1050.757812 454.082031 1050.757812 458.308594 C 1050.757812 462.53125 1054.183594 465.957031 1058.40625 465.957031 C 1062.632812 465.957031 1066.054688 462.53125 1066.054688 458.308594 C 1066.054688 454.082031 1062.632812 450.660156 1058.40625 450.660156 Z M 1058.40625 450.660156 " clip-rule="nonzero"/></clipPath><clipPath id="59de8bb47d"><path d="M 963.621094 557.1875 L 986.296875 557.1875 L 986.296875 579.863281 L 963.621094 579.863281 Z M 963.621094 557.1875 " clip-rule="nonzero"/></clipPath><clipPath id="4d06dc4499"><path d="M 974.960938 557.1875 C 968.695312 557.1875 963.621094 562.261719 963.621094 568.523438 C 963.621094 574.789062 968.695312 579.863281 974.960938 579.863281 C 981.222656 579.863281 986.296875 574.789062 986.296875 568.523438 C 986.296875 562.261719 981.222656 557.1875 974.960938 557.1875 Z M 974.960938 557.1875 " clip-rule="nonzero"/></clipPath><clipPath id="e3c8834196"><path d="M 896.992188 624.761719 L 919.671875 624.761719 L 919.671875 647.441406 L 896.992188 647.441406 Z M 896.992188 624.761719 " clip-rule="nonzero"/></clipPath><clipPath id="bbd06f34c8"><path d="M 908.332031 624.761719 C 902.070312 624.761719 896.992188 629.839844 896.992188 636.101562 C 896.992188 642.363281 902.070312 647.441406 908.332031 647.441406 C 914.59375 647.441406 919.671875 642.363281 919.671875 636.101562 C 919.671875 629.839844 914.59375 624.761719 908.332031 624.761719 Z M 908.332031 624.761719 " clip-rule="nonzero"/></clipPath><clipPath id="9581b24945"><path d="M 685.707031 660.488281 L 708.386719 660.488281 L 708.386719 683.164062 L 685.707031 683.164062 Z M 685.707031 660.488281 " clip-rule="nonzero"/></clipPath><clipPath id="12776cc38e"><path d="M 697.046875 660.488281 C 690.785156 660.488281 685.707031 665.5625 685.707031 671.824219 C 685.707031 678.089844 690.785156 683.164062 697.046875 683.164062 C 703.308594 683.164062 708.386719 678.089844 708.386719 671.824219 C 708.386719 665.5625 703.308594 660.488281 697.046875 660.488281 Z M 697.046875 660.488281 " clip-rule="nonzero"/></clipPath><clipPath id="6643e8fafa"><path d="M 447.898438 636.101562 L 483.621094 636.101562 L 483.621094 671.824219 L 447.898438 671.824219 Z M 447.898438 636.101562 " clip-rule="nonzero"/></clipPath><clipPath id="44c1bdd2b2"><path d="M 465.757812 636.101562 C 455.894531 636.101562 447.898438 644.097656 447.898438 653.964844 C 447.898438 663.828125 455.894531 671.824219 465.757812 671.824219 C 475.625 671.824219 483.621094 663.828125 483.621094 653.964844 C 483.621094 644.097656 475.625 636.101562 465.757812 636.101562 Z M 465.757812 636.101562 " clip-rule="nonzero"/></clipPath><clipPath id="e32b507314"><path d="M 373.339844 369.238281 L 409.0625 369.238281 L 409.0625 404.964844 L 373.339844 404.964844 Z M 373.339844 369.238281 " clip-rule="nonzero"/></clipPath><clipPath id="748da89cbc"><path d="M 391.199219 369.238281 C 381.335938 369.238281 373.339844 377.238281 373.339844 387.101562 C 373.339844 396.964844 381.335938 404.964844 391.199219 404.964844 C 401.066406 404.964844 409.0625 396.964844 409.0625 387.101562 C 409.0625 377.238281 401.066406 369.238281 391.199219 369.238281 Z M 391.199219 369.238281 " clip-rule="nonzero"/></clipPath><clipPath id="5b6b66c7a4"><path d="M 667.847656 127.515625 L 703.570312 127.515625 L 703.570312 163.242188 L 667.847656 163.242188 Z M 667.847656 127.515625 " clip-rule="nonzero"/></clipPath><clipPath id="a6c39eeb28"><path d="M 685.707031 127.515625 C 675.84375 127.515625 667.847656 135.511719 667.847656 145.378906 C 667.847656 155.242188 675.84375 163.242188 685.707031 163.242188 C 695.574219 163.242188 703.570312 155.242188 703.570312 145.378906 C 703.570312 135.511719 695.574219 127.515625 685.707031 127.515625 Z M 685.707031 127.515625 " clip-rule="nonzero"/></clipPath><clipPath id="ca09026fd0"><path d="M 824.894531 257.945312 L 847.570312 257.945312 L 847.570312 280.625 L 824.894531 280.625 Z M 824.894531 257.945312 " clip-rule="nonzero"/></clipPath><clipPath id="730c033b86"><path d="M 836.234375 257.945312 C 829.96875 257.945312 824.894531 263.023438 824.894531 269.285156 C 824.894531 275.550781 829.96875 280.625 836.234375 280.625 C 842.496094 280.625 847.570312 275.550781 847.570312 269.285156 C 847.570312 263.023438 842.496094 257.945312 836.234375 257.945312 Z M 836.234375 257.945312 " clip-rule="nonzero"/></clipPath></defs><g mask="url(#92e2cfe577)"><g transform="matrix(1, 0, 0, 1, 527, 250)"><g clip-path="url(#89f79380d2)"><g clip-path="url(#f84420af97)"><g clip-path="url(#7808686d5b)"><path fill="#ffd900" d="M 0.152344 0.929688 L 353.210938 0.929688 L 353.210938 353.988281 L 0.152344 353.988281 Z M 0.152344 0.929688 " fill-opacity="1" fill-rule="nonzero"/></g></g></g></g></g><g clip-path="url(#d25fbed5d4)"><g clip-path="url(#59df13d505)"><path fill="#ffffff" d="M 542.34375 266.125 L 865.019531 266.125 L 865.019531 588.796875 L 542.34375 588.796875 Z M 542.34375 266.125 " fill-opacity="1" fill-rule="nonzero"/></g></g><g clip-path="url(#165c794d34)"><path fill="#ffd900" d="M 840.34375 424.167969 C 840.34375 426.402344 840.289062 428.636719 840.179688 430.871094 C 840.070312 433.105469 839.90625 435.335938 839.6875 437.5625 C 839.464844 439.789062 839.191406 442.007812 838.863281 444.21875 C 838.535156 446.433594 838.15625 448.636719 837.71875 450.828125 C 837.28125 453.023438 836.792969 455.203125 836.25 457.375 C 835.703125 459.542969 835.109375 461.699219 834.460938 463.839844 C 833.808594 465.976562 833.109375 468.101562 832.355469 470.207031 C 831.601562 472.3125 830.796875 474.398438 829.941406 476.464844 C 829.085938 478.53125 828.179688 480.574219 827.222656 482.597656 C 826.265625 484.621094 825.261719 486.617188 824.207031 488.589844 C 823.152344 490.5625 822.050781 492.507812 820.902344 494.425781 C 819.75 496.34375 818.554688 498.234375 817.3125 500.09375 C 816.070312 501.953125 814.78125 503.78125 813.449219 505.578125 C 812.117188 507.375 810.742188 509.136719 809.324219 510.867188 C 807.902344 512.59375 806.445312 514.289062 804.941406 515.945312 C 803.4375 517.601562 801.898438 519.222656 800.316406 520.800781 C 798.734375 522.382812 797.113281 523.925781 795.457031 525.429688 C 793.800781 526.929688 792.109375 528.390625 790.378906 529.808594 C 788.648438 531.226562 786.886719 532.605469 785.089844 533.9375 C 783.292969 535.269531 781.464844 536.554688 779.605469 537.796875 C 777.746094 539.042969 775.859375 540.238281 773.9375 541.386719 C 772.019531 542.539062 770.074219 543.640625 768.101562 544.695312 C 766.128906 545.746094 764.132812 546.753906 762.113281 547.710938 C 760.089844 548.664062 758.046875 549.570312 755.980469 550.429688 C 753.914062 551.285156 751.828125 552.089844 749.722656 552.84375 C 747.613281 553.59375 745.492188 554.296875 743.351562 554.945312 C 741.210938 555.59375 739.054688 556.191406 736.886719 556.734375 C 734.71875 557.277344 732.535156 557.769531 730.34375 558.203125 C 728.148438 558.640625 725.945312 559.023438 723.734375 559.351562 C 721.519531 559.679688 719.300781 559.953125 717.074219 560.171875 C 714.847656 560.390625 712.621094 560.554688 710.386719 560.667969 C 708.152344 560.777344 705.917969 560.832031 703.679688 560.832031 C 701.445312 560.832031 699.207031 560.777344 696.972656 560.667969 C 694.742188 560.554688 692.511719 560.390625 690.285156 560.171875 C 688.058594 559.953125 685.839844 559.679688 683.628906 559.351562 C 681.414062 559.023438 679.210938 558.640625 677.019531 558.203125 C 674.824219 557.769531 672.644531 557.277344 670.472656 556.734375 C 668.304688 556.191406 666.148438 555.59375 664.007812 554.945312 C 661.867188 554.296875 659.746094 553.59375 657.640625 552.84375 C 655.535156 552.089844 653.445312 551.285156 651.382812 550.429688 C 649.316406 549.570312 647.269531 548.664062 645.25 547.710938 C 643.226562 546.753906 641.230469 545.746094 639.257812 544.695312 C 637.285156 543.640625 635.339844 542.539062 633.421875 541.386719 C 631.503906 540.238281 629.613281 539.042969 627.753906 537.796875 C 625.894531 536.554688 624.066406 535.269531 622.269531 533.9375 C 620.472656 532.605469 618.710938 531.226562 616.980469 529.808594 C 615.253906 528.390625 613.558594 526.929688 611.902344 525.429688 C 610.246094 523.925781 608.625 522.382812 607.042969 520.800781 C 605.460938 519.222656 603.921875 517.601562 602.417969 515.945312 C 600.917969 514.289062 599.457031 512.59375 598.039062 510.867188 C 596.617188 509.136719 595.242188 507.375 593.910156 505.578125 C 592.578125 503.78125 591.289062 501.953125 590.046875 500.09375 C 588.804688 498.234375 587.609375 496.34375 586.460938 494.425781 C 585.308594 492.507812 584.207031 490.5625 583.152344 488.589844 C 582.097656 486.617188 581.09375 484.621094 580.136719 482.597656 C 579.179688 480.574219 578.273438 478.53125 577.417969 476.464844 C 576.5625 474.398438 575.757812 472.3125 575.003906 470.207031 C 574.25 468.101562 573.550781 465.976562 572.902344 463.839844 C 572.25 461.699219 571.65625 459.542969 571.113281 457.375 C 570.566406 455.203125 570.078125 453.023438 569.640625 450.828125 C 569.207031 448.636719 568.824219 446.433594 568.496094 444.21875 C 568.167969 442.007812 567.894531 439.789062 567.675781 437.5625 C 567.453125 435.335938 567.289062 433.105469 567.179688 430.871094 C 567.070312 428.636719 567.015625 426.402344 567.015625 424.167969 C 567.015625 421.929688 567.070312 419.695312 567.179688 417.460938 C 567.289062 415.226562 567.453125 412.996094 567.675781 410.769531 C 567.894531 408.546875 568.167969 406.328125 568.496094 404.113281 C 568.824219 401.902344 569.207031 399.699219 569.640625 397.503906 C 570.078125 395.3125 570.566406 393.128906 571.113281 390.960938 C 571.65625 388.789062 572.25 386.636719 572.902344 384.496094 C 573.550781 382.355469 574.25 380.230469 575.003906 378.125 C 575.757812 376.019531 576.5625 373.933594 577.417969 371.867188 C 578.273438 369.800781 579.179688 367.757812 580.136719 365.734375 C 581.09375 363.714844 582.097656 361.714844 583.152344 359.742188 C 584.207031 357.769531 585.308594 355.824219 586.460938 353.90625 C 587.609375 351.988281 588.804688 350.101562 590.046875 348.238281 C 591.289062 346.378906 592.578125 344.550781 593.910156 342.757812 C 595.242188 340.960938 596.617188 339.195312 598.039062 337.46875 C 599.457031 335.738281 600.917969 334.046875 602.417969 332.390625 C 603.921875 330.730469 605.460938 329.113281 607.042969 327.53125 C 608.625 325.949219 610.246094 324.40625 611.902344 322.90625 C 613.558594 321.402344 615.253906 319.941406 616.980469 318.523438 C 618.710938 317.105469 620.472656 315.730469 622.269531 314.398438 C 624.066406 313.066406 625.894531 311.777344 627.753906 310.535156 C 629.613281 309.292969 631.503906 308.097656 633.421875 306.945312 C 635.339844 305.796875 637.285156 304.695312 639.257812 303.640625 C 641.230469 302.585938 643.226562 301.582031 645.25 300.625 C 647.269531 299.667969 649.316406 298.761719 651.382812 297.90625 C 653.445312 297.050781 655.535156 296.246094 657.640625 295.492188 C 659.746094 294.738281 661.867188 294.035156 664.007812 293.386719 C 666.148438 292.738281 668.304688 292.140625 670.472656 291.597656 C 672.644531 291.054688 674.824219 290.566406 677.019531 290.128906 C 679.210938 289.691406 681.414062 289.308594 683.628906 288.980469 C 685.839844 288.652344 688.058594 288.378906 690.285156 288.160156 C 692.511719 287.941406 694.742188 287.777344 696.972656 287.667969 C 699.207031 287.558594 701.445312 287.503906 703.679688 287.503906 C 705.917969 287.503906 708.152344 287.558594 710.386719 287.667969 C 712.621094 287.777344 714.847656 287.941406 717.074219 288.160156 C 719.300781 288.378906 721.519531 288.652344 723.734375 288.980469 C 725.945312 289.308594 728.148438 289.691406 730.34375 290.128906 C 732.535156 290.566406 734.71875 291.054688 736.886719 291.597656 C 739.054688 292.140625 741.210938 292.738281 743.351562 293.386719 C 745.492188 294.035156 747.613281 294.738281 749.722656 295.492188 C 751.828125 296.246094 753.914062 297.050781 755.980469 297.90625 C 758.046875 298.761719 760.089844 299.667969 762.113281 300.625 C 764.132812 301.582031 766.128906 302.585938 768.101562 303.640625 C 770.074219 304.695312 772.019531 305.796875 773.9375 306.945312 C 775.859375 308.097656 777.746094 309.292969 779.605469 310.535156 C 781.464844 311.777344 783.292969 313.066406 785.089844 314.398438 C 786.886719 315.730469 788.648438 317.105469 790.378906 318.523438 C 792.109375 319.941406 793.800781 321.402344 795.457031 322.90625 C 797.113281 324.40625 798.734375 325.949219 800.316406 327.53125 C 801.898438 329.113281 803.4375 330.730469 804.941406 332.390625 C 806.445312 334.046875 807.902344 335.738281 809.324219 337.46875 C 810.742188 339.195312 812.117188 340.960938 813.449219 342.757812 C 814.78125 344.550781 816.070312 346.378906 817.3125 348.238281 C 818.554688 350.101562 819.75 351.988281 820.902344 353.90625 C 822.050781 355.824219 823.152344 357.769531 824.207031 359.742188 C 825.261719 361.714844 826.265625 363.714844 827.222656 365.734375 C 828.179688 367.757812 829.085938 369.800781 829.941406 371.867188 C 830.796875 373.933594 831.601562 376.019531 832.355469 378.125 C 833.109375 380.230469 833.808594 382.355469 834.460938 384.496094 C 835.109375 386.636719 835.703125 388.789062 836.25 390.960938 C 836.792969 393.128906 837.28125 395.3125 837.71875 397.503906 C 838.15625 399.699219 838.535156 401.902344 838.863281 404.113281 C 839.191406 406.328125 839.464844 408.546875 839.6875 410.769531 C 839.90625 412.996094 840.070312 415.226562 840.179688 417.460938 C 840.289062 419.695312 840.34375 421.929688 840.34375 424.167969 Z M 840.34375 424.167969 " fill-opacity="1" fill-rule="nonzero"/></g><path fill="#f2f2f2" d="M 778.714844 398.347656 C 786.027344 391.03125 786.027344 379.171875 778.710938 371.855469 C 771.390625 364.542969 759.53125 364.542969 752.214844 371.863281 L 687.378906 436.730469 L 655.011719 404.363281 C 647.695312 397.046875 635.832031 397.046875 628.519531 404.363281 C 621.203125 411.679688 621.203125 423.539062 628.519531 430.855469 L 674.132812 476.472656 C 677.648438 479.988281 682.414062 481.960938 687.382812 481.960938 C 692.351562 481.960938 697.121094 479.984375 700.632812 476.46875 Z M 778.714844 398.347656 " fill-opacity="1" fill-rule="nonzero"/><g clip-path="url(#23d6141791)"><g clip-path="url(#f5cefb7d2c)"><path fill="#ffd900" d="M 504.472656 235.269531 L 549.832031 235.269531 L 549.832031 280.625 L 504.472656 280.625 Z M 504.472656 235.269531 " fill-opacity="1" fill-rule="nonzero"/></g></g><g clip-path="url(#3426b878be)"><g clip-path="url(#69795f29e7)"><path fill="#ffd900" d="M 542.34375 133.300781 L 578.070312 133.300781 L 578.070312 169.027344 L 542.34375 169.027344 Z M 542.34375 133.300781 " fill-opacity="1" fill-rule="nonzero"/></g></g><g clip-path="url(#7d2098e6db)"><g clip-path="url(#21b1bbe7ed)"><path fill="#ffd900" d="M 431.742188 163.242188 L 454.417969 163.242188 L 454.417969 185.917969 L 431.742188 185.917969 Z M 431.742188 163.242188 " fill-opacity="1" fill-rule="nonzero"/></g></g><g clip-path="url(#69a36f24d5)"><g clip-path="url(#4976d8da9b)"><path fill="#ffd900" d="M 397.722656 248.402344 L 420.402344 248.402344 L 420.402344 271.078125 L 397.722656 271.078125 Z M 397.722656 248.402344 " fill-opacity="1" fill-rule="nonzero"/></g></g><g clip-path="url(#2bee6714e5)"><g clip-path="url(#d8f27434ca)"><path fill="#ffd900" d="M 443.078125 476.5625 L 465.757812 476.5625 L 465.757812 499.242188 L 443.078125 499.242188 Z M 443.078125 476.5625 " fill-opacity="1" fill-rule="nonzero"/></g></g><g clip-path="url(#128cda0839)"><g clip-path="url(#fc9f32d224)"><path fill="#ffd900" d="M 919.671875 237.0625 L 942.347656 237.0625 L 942.347656 259.738281 L 919.671875 259.738281 Z M 919.671875 237.0625 " fill-opacity="1" fill-rule="nonzero"/></g></g><g clip-path="url(#6d95ba58d2)"><g clip-path="url(#7dd03a7923)"><path fill="#ffd900" d="M 908.332031 453.882812 L 931.011719 453.882812 L 931.011719 476.5625 L 908.332031 476.5625 Z M 908.332031 453.882812 " fill-opacity="1" fill-rule="nonzero"/></g></g><g clip-path="url(#fb5d2554ad)"><g clip-path="url(#81cd3d1b1f)"><path fill="#ffd900" d="M 1039.417969 203.042969 L 1062.097656 203.042969 L 1062.097656 225.722656 L 1039.417969 225.722656 Z M 1039.417969 203.042969 " fill-opacity="1" fill-rule="nonzero"/></g></g><g clip-path="url(#09dc9990a6)"><g clip-path="url(#ebb3ceaf83)"><path fill="#ffd900" d="M 635.945312 191.703125 L 658.625 191.703125 L 658.625 214.382812 L 635.945312 214.382812 Z M 635.945312 191.703125 " fill-opacity="1" fill-rule="nonzero"/></g></g><g clip-path="url(#c298b03759)"><g clip-path="url(#0007e873bc)"><path fill="#ffd900" d="M 748.566406 169.027344 L 771.242188 169.027344 L 771.242188 191.703125 L 748.566406 191.703125 Z M 748.566406 169.027344 " fill-opacity="1" fill-rule="nonzero"/></g></g><g clip-path="url(#1d1444d491)"><g clip-path="url(#875c3b7414)"><path fill="#ffd900" d="M 868.5625 153.726562 L 883.863281 153.726562 L 883.863281 169.027344 L 868.5625 169.027344 Z M 868.5625 153.726562 " fill-opacity="1" fill-rule="nonzero"/></g></g><g clip-path="url(#a0bdc3698b)"><g clip-path="url(#200f3b7ff3)"><path fill="#ffd900" d="M 959.660156 302.191406 L 974.960938 302.191406 L 974.960938 317.492188 L 959.660156 317.492188 Z M 959.660156 302.191406 " fill-opacity="1" fill-rule="nonzero"/></g></g><g clip-path="url(#a835c64dd9)"><g clip-path="url(#1890a45d36)"><path fill="#ffd900" d="M 1050.757812 450.660156 L 1066.058594 450.660156 L 1066.058594 465.957031 L 1050.757812 465.957031 Z M 1050.757812 450.660156 " fill-opacity="1" fill-rule="nonzero"/></g></g><g clip-path="url(#59de8bb47d)"><g clip-path="url(#4d06dc4499)"><path fill="#ffd900" d="M 963.621094 557.1875 L 986.296875 557.1875 L 986.296875 579.863281 L 963.621094 579.863281 Z M 963.621094 557.1875 " fill-opacity="1" fill-rule="nonzero"/></g></g><g clip-path="url(#e3c8834196)"><g clip-path="url(#bbd06f34c8)"><path fill="#ffd900" d="M 896.992188 624.761719 L 919.671875 624.761719 L 919.671875 647.441406 L 896.992188 647.441406 Z M 896.992188 624.761719 " fill-opacity="1" fill-rule="nonzero"/></g></g><g clip-path="url(#9581b24945)"><g clip-path="url(#12776cc38e)"><path fill="#ffd900" d="M 685.707031 660.488281 L 708.386719 660.488281 L 708.386719 683.164062 L 685.707031 683.164062 Z M 685.707031 660.488281 " fill-opacity="1" fill-rule="nonzero"/></g></g><g clip-path="url(#6643e8fafa)"><g clip-path="url(#44c1bdd2b2)"><path fill="#ffd900" d="M 447.898438 636.101562 L 483.621094 636.101562 L 483.621094 671.824219 L 447.898438 671.824219 Z M 447.898438 636.101562 " fill-opacity="1" fill-rule="nonzero"/></g></g><g clip-path="url(#e32b507314)"><g clip-path="url(#748da89cbc)"><path fill="#ffd900" d="M 373.339844 369.238281 L 409.0625 369.238281 L 409.0625 404.964844 L 373.339844 404.964844 Z M 373.339844 369.238281 " fill-opacity="1" fill-rule="nonzero"/></g></g><g clip-path="url(#5b6b66c7a4)"><g clip-path="url(#a6c39eeb28)"><path fill="#ffd900" d="M 667.847656 127.515625 L 703.570312 127.515625 L 703.570312 163.242188 L 667.847656 163.242188 Z M 667.847656 127.515625 " fill-opacity="1" fill-rule="nonzero"/></g></g><g clip-path="url(#ca09026fd0)"><g clip-path="url(#730c033b86)"><path fill="#ffd900" d="M 824.894531 257.945312 L 847.570312 257.945312 L 847.570312 280.625 L 824.894531 280.625 Z M 824.894531 257.945312 " fill-opacity="1" fill-rule="nonzero"/></g></g></svg>