<svg xmlns="http://www.w3.org/2000/svg" xmlns:xlink="http://www.w3.org/1999/xlink" width="1920" zoomAndPan="magnify" viewBox="0 0 1440 809.999993" height="1080" preserveAspectRatio="xMidYMid meet" version="1.0"><defs><filter x="0%" y="0%" width="100%" height="100%" id="f53143713a"><feColorMatrix values="0 0 0 0 1 0 0 0 0 1 0 0 0 0 1 0 0 0 1 0" color-interpolation-filters="sRGB"/></filter><mask id="5204f2d042"><g filter="url(#f53143713a)"><rect x="-144" width="1728" fill="#000000" y="-80.999999" height="971.999992" fill-opacity="0.14"/></g></mask><clipPath id="fb857ffa99"><path d="M 0.152344 0.929688 L 353.210938 0.929688 L 353.210938 353.988281 L 0.152344 353.988281 Z M 0.152344 0.929688 " clip-rule="nonzero"/></clipPath><clipPath id="3eb660101e"><path d="M 176.683594 0.929688 C 79.1875 0.929688 0.152344 79.964844 0.152344 177.460938 C 0.152344 274.953125 79.1875 353.988281 176.683594 353.988281 C 274.175781 353.988281 353.210938 274.953125 353.210938 177.460938 C 353.210938 79.964844 274.175781 0.929688 176.683594 0.929688 Z M 176.683594 0.929688 " clip-rule="nonzero"/></clipPath><clipPath id="b18dd7ed88"><rect x="0" width="354" y="0" height="355"/></clipPath><clipPath id="10759294c5"><path d="M 504.472656 235.269531 L 549.832031 235.269531 L 549.832031 280.625 L 504.472656 280.625 Z M 504.472656 235.269531 " clip-rule="nonzero"/></clipPath><clipPath id="3357b879ae"><path d="M 527.152344 235.269531 C 514.628906 235.269531 504.472656 245.421875 504.472656 257.945312 C 504.472656 270.472656 514.628906 280.625 527.152344 280.625 C 539.675781 280.625 549.832031 270.472656 549.832031 257.945312 C 549.832031 245.421875 539.675781 235.269531 527.152344 235.269531 Z M 527.152344 235.269531 " clip-rule="nonzero"/></clipPath><clipPath id="aeaafc51cd"><path d="M 542.34375 133.300781 L 578.070312 133.300781 L 578.070312 169.027344 L 542.34375 169.027344 Z M 542.34375 133.300781 " clip-rule="nonzero"/></clipPath><clipPath id="a2cbd25cfe"><path d="M 560.207031 133.300781 C 550.34375 133.300781 542.34375 141.296875 542.34375 151.164062 C 542.34375 161.027344 550.34375 169.027344 560.207031 169.027344 C 570.070312 169.027344 578.070312 161.027344 578.070312 151.164062 C 578.070312 141.296875 570.070312 133.300781 560.207031 133.300781 Z M 560.207031 133.300781 " clip-rule="nonzero"/></clipPath><clipPath id="290237a0e9"><path d="M 431.742188 163.242188 L 454.417969 163.242188 L 454.417969 185.917969 L 431.742188 185.917969 Z M 431.742188 163.242188 " clip-rule="nonzero"/></clipPath><clipPath id="383f9801e4"><path d="M 443.078125 163.242188 C 436.816406 163.242188 431.742188 168.316406 431.742188 174.578125 C 431.742188 180.84375 436.816406 185.917969 443.078125 185.917969 C 449.34375 185.917969 454.417969 180.84375 454.417969 174.578125 C 454.417969 168.316406 449.34375 163.242188 443.078125 163.242188 Z M 443.078125 163.242188 " clip-rule="nonzero"/></clipPath><clipPath id="16057c938d"><path d="M 397.722656 248.402344 L 420.402344 248.402344 L 420.402344 271.078125 L 397.722656 271.078125 Z M 397.722656 248.402344 " clip-rule="nonzero"/></clipPath><clipPath id="929d5497b3"><path d="M 409.0625 248.402344 C 402.800781 248.402344 397.722656 253.476562 397.722656 259.738281 C 397.722656 266.003906 402.800781 271.078125 409.0625 271.078125 C 415.324219 271.078125 420.402344 266.003906 420.402344 259.738281 C 420.402344 253.476562 415.324219 248.402344 409.0625 248.402344 Z M 409.0625 248.402344 " clip-rule="nonzero"/></clipPath><clipPath id="81627b42c0"><path d="M 443.078125 476.5625 L 465.757812 476.5625 L 465.757812 499.242188 L 443.078125 499.242188 Z M 443.078125 476.5625 " clip-rule="nonzero"/></clipPath><clipPath id="798c0eddda"><path d="M 454.417969 476.5625 C 448.15625 476.5625 443.078125 481.640625 443.078125 487.902344 C 443.078125 494.164062 448.15625 499.242188 454.417969 499.242188 C 460.683594 499.242188 465.757812 494.164062 465.757812 487.902344 C 465.757812 481.640625 460.683594 476.5625 454.417969 476.5625 Z M 454.417969 476.5625 " clip-rule="nonzero"/></clipPath><clipPath id="5c61715c6b"><path d="M 919.671875 237.0625 L 942.347656 237.0625 L 942.347656 259.738281 L 919.671875 259.738281 Z M 919.671875 237.0625 " clip-rule="nonzero"/></clipPath><clipPath id="068e840b83"><path d="M 931.007812 237.0625 C 924.746094 237.0625 919.671875 242.136719 919.671875 248.402344 C 919.671875 254.664062 924.746094 259.738281 931.007812 259.738281 C 937.273438 259.738281 942.347656 254.664062 942.347656 248.402344 C 942.347656 242.136719 937.273438 237.0625 931.007812 237.0625 Z M 931.007812 237.0625 " clip-rule="nonzero"/></clipPath><clipPath id="e2e540f632"><path d="M 908.332031 453.882812 L 931.011719 453.882812 L 931.011719 476.5625 L 908.332031 476.5625 Z M 908.332031 453.882812 " clip-rule="nonzero"/></clipPath><clipPath id="af1bf91e58"><path d="M 919.671875 453.882812 C 913.40625 453.882812 908.332031 458.960938 908.332031 465.222656 C 908.332031 471.484375 913.40625 476.5625 919.671875 476.5625 C 925.933594 476.5625 931.007812 471.484375 931.007812 465.222656 C 931.007812 458.960938 925.933594 453.882812 919.671875 453.882812 Z M 919.671875 453.882812 " clip-rule="nonzero"/></clipPath><clipPath id="4e77287644"><path d="M 1039.417969 203.042969 L 1062.097656 203.042969 L 1062.097656 225.722656 L 1039.417969 225.722656 Z M 1039.417969 203.042969 " clip-rule="nonzero"/></clipPath><clipPath id="db9d5c8840"><path d="M 1050.757812 203.042969 C 1044.496094 203.042969 1039.417969 208.121094 1039.417969 214.382812 C 1039.417969 220.644531 1044.496094 225.722656 1050.757812 225.722656 C 1057.019531 225.722656 1062.097656 220.644531 1062.097656 214.382812 C 1062.097656 208.121094 1057.019531 203.042969 1050.757812 203.042969 Z M 1050.757812 203.042969 " clip-rule="nonzero"/></clipPath><clipPath id="437338a6a4"><path d="M 635.945312 191.703125 L 658.625 191.703125 L 658.625 214.382812 L 635.945312 214.382812 Z M 635.945312 191.703125 " clip-rule="nonzero"/></clipPath><clipPath id="434b3783f7"><path d="M 647.285156 191.703125 C 641.023438 191.703125 635.945312 196.78125 635.945312 203.042969 C 635.945312 209.304688 641.023438 214.382812 647.285156 214.382812 C 653.546875 214.382812 658.625 209.304688 658.625 203.042969 C 658.625 196.78125 653.546875 191.703125 647.285156 191.703125 Z M 647.285156 191.703125 " clip-rule="nonzero"/></clipPath><clipPath id="511cd10fa3"><path d="M 748.566406 169.027344 L 771.242188 169.027344 L 771.242188 191.703125 L 748.566406 191.703125 Z M 748.566406 169.027344 " clip-rule="nonzero"/></clipPath><clipPath id="277dad7e22"><path d="M 759.902344 169.027344 C 753.640625 169.027344 748.566406 174.101562 748.566406 180.363281 C 748.566406 186.628906 753.640625 191.703125 759.902344 191.703125 C 766.167969 191.703125 771.242188 186.628906 771.242188 180.363281 C 771.242188 174.101562 766.167969 169.027344 759.902344 169.027344 Z M 759.902344 169.027344 " clip-rule="nonzero"/></clipPath><clipPath id="9e0acdd2a6"><path d="M 868.5625 153.726562 L 883.863281 153.726562 L 883.863281 169.027344 L 868.5625 169.027344 Z M 868.5625 153.726562 " clip-rule="nonzero"/></clipPath><clipPath id="f8af7281a9"><path d="M 876.210938 153.726562 C 871.988281 153.726562 868.5625 157.152344 868.5625 161.375 C 868.5625 165.601562 871.988281 169.027344 876.210938 169.027344 C 880.4375 169.027344 883.863281 165.601562 883.863281 161.375 C 883.863281 157.152344 880.4375 153.726562 876.210938 153.726562 Z M 876.210938 153.726562 " clip-rule="nonzero"/></clipPath><clipPath id="3064fc24a0"><path d="M 959.660156 302.191406 L 974.960938 302.191406 L 974.960938 317.492188 L 959.660156 317.492188 Z M 959.660156 302.191406 " clip-rule="nonzero"/></clipPath><clipPath id="edcdb9bac4"><path d="M 967.308594 302.191406 C 963.085938 302.191406 959.660156 305.617188 959.660156 309.84375 C 959.660156 314.066406 963.085938 317.492188 967.308594 317.492188 C 971.535156 317.492188 974.960938 314.066406 974.960938 309.84375 C 974.960938 305.617188 971.535156 302.191406 967.308594 302.191406 Z M 967.308594 302.191406 " clip-rule="nonzero"/></clipPath><clipPath id="42b03c7824"><path d="M 1050.757812 450.660156 L 1066.058594 450.660156 L 1066.058594 465.957031 L 1050.757812 465.957031 Z M 1050.757812 450.660156 " clip-rule="nonzero"/></clipPath><clipPath id="798e8856ba"><path d="M 1058.40625 450.660156 C 1054.183594 450.660156 1050.757812 454.082031 1050.757812 458.308594 C 1050.757812 462.53125 1054.183594 465.957031 1058.40625 465.957031 C 1062.632812 465.957031 1066.054688 462.53125 1066.054688 458.308594 C 1066.054688 454.082031 1062.632812 450.660156 1058.40625 450.660156 Z M 1058.40625 450.660156 " clip-rule="nonzero"/></clipPath><clipPath id="5d69b19b87"><path d="M 963.621094 557.1875 L 986.296875 557.1875 L 986.296875 579.863281 L 963.621094 579.863281 Z M 963.621094 557.1875 " clip-rule="nonzero"/></clipPath><clipPath id="a87e04d721"><path d="M 974.960938 557.1875 C 968.695312 557.1875 963.621094 562.261719 963.621094 568.523438 C 963.621094 574.789062 968.695312 579.863281 974.960938 579.863281 C 981.222656 579.863281 986.296875 574.789062 986.296875 568.523438 C 986.296875 562.261719 981.222656 557.1875 974.960938 557.1875 Z M 974.960938 557.1875 " clip-rule="nonzero"/></clipPath><clipPath id="8954a234c3"><path d="M 896.992188 624.761719 L 919.671875 624.761719 L 919.671875 647.441406 L 896.992188 647.441406 Z M 896.992188 624.761719 " clip-rule="nonzero"/></clipPath><clipPath id="dce69af782"><path d="M 908.332031 624.761719 C 902.070312 624.761719 896.992188 629.839844 896.992188 636.101562 C 896.992188 642.363281 902.070312 647.441406 908.332031 647.441406 C 914.59375 647.441406 919.671875 642.363281 919.671875 636.101562 C 919.671875 629.839844 914.59375 624.761719 908.332031 624.761719 Z M 908.332031 624.761719 " clip-rule="nonzero"/></clipPath><clipPath id="edbc45152f"><path d="M 685.707031 660.488281 L 708.386719 660.488281 L 708.386719 683.164062 L 685.707031 683.164062 Z M 685.707031 660.488281 " clip-rule="nonzero"/></clipPath><clipPath id="512b2c4b22"><path d="M 697.046875 660.488281 C 690.785156 660.488281 685.707031 665.5625 685.707031 671.824219 C 685.707031 678.089844 690.785156 683.164062 697.046875 683.164062 C 703.308594 683.164062 708.386719 678.089844 708.386719 671.824219 C 708.386719 665.5625 703.308594 660.488281 697.046875 660.488281 Z M 697.046875 660.488281 " clip-rule="nonzero"/></clipPath><clipPath id="bab4dca5f6"><path d="M 447.898438 636.101562 L 483.621094 636.101562 L 483.621094 671.824219 L 447.898438 671.824219 Z M 447.898438 636.101562 " clip-rule="nonzero"/></clipPath><clipPath id="0959f1fd48"><path d="M 465.757812 636.101562 C 455.894531 636.101562 447.898438 644.097656 447.898438 653.964844 C 447.898438 663.828125 455.894531 671.824219 465.757812 671.824219 C 475.625 671.824219 483.621094 663.828125 483.621094 653.964844 C 483.621094 644.097656 475.625 636.101562 465.757812 636.101562 Z M 465.757812 636.101562 " clip-rule="nonzero"/></clipPath><clipPath id="759fa0003c"><path d="M 373.339844 369.238281 L 409.0625 369.238281 L 409.0625 404.964844 L 373.339844 404.964844 Z M 373.339844 369.238281 " clip-rule="nonzero"/></clipPath><clipPath id="2d03f8d306"><path d="M 391.199219 369.238281 C 381.335938 369.238281 373.339844 377.238281 373.339844 387.101562 C 373.339844 396.964844 381.335938 404.964844 391.199219 404.964844 C 401.066406 404.964844 409.0625 396.964844 409.0625 387.101562 C 409.0625 377.238281 401.066406 369.238281 391.199219 369.238281 Z M 391.199219 369.238281 " clip-rule="nonzero"/></clipPath><clipPath id="88aec1f04d"><path d="M 667.847656 127.515625 L 703.570312 127.515625 L 703.570312 163.242188 L 667.847656 163.242188 Z M 667.847656 127.515625 " clip-rule="nonzero"/></clipPath><clipPath id="5f53a9dd92"><path d="M 685.707031 127.515625 C 675.84375 127.515625 667.847656 135.511719 667.847656 145.378906 C 667.847656 155.242188 675.84375 163.242188 685.707031 163.242188 C 695.574219 163.242188 703.570312 155.242188 703.570312 145.378906 C 703.570312 135.511719 695.574219 127.515625 685.707031 127.515625 Z M 685.707031 127.515625 " clip-rule="nonzero"/></clipPath><clipPath id="ff36bb4009"><path d="M 824.894531 257.945312 L 847.570312 257.945312 L 847.570312 280.625 L 824.894531 280.625 Z M 824.894531 257.945312 " clip-rule="nonzero"/></clipPath><clipPath id="8614226128"><path d="M 836.234375 257.945312 C 829.96875 257.945312 824.894531 263.023438 824.894531 269.285156 C 824.894531 275.550781 829.96875 280.625 836.234375 280.625 C 842.496094 280.625 847.570312 275.550781 847.570312 269.285156 C 847.570312 263.023438 842.496094 257.945312 836.234375 257.945312 Z M 836.234375 257.945312 " clip-rule="nonzero"/></clipPath><clipPath id="7bba511fee"><path d="M 542.34375 266.125 L 865.019531 266.125 L 865.019531 588.796875 L 542.34375 588.796875 Z M 542.34375 266.125 " clip-rule="nonzero"/></clipPath><clipPath id="f07fb08d2a"><path d="M 703.683594 266.125 C 614.578125 266.125 542.34375 338.355469 542.34375 427.460938 C 542.34375 516.5625 614.578125 588.796875 703.683594 588.796875 C 792.785156 588.796875 865.019531 516.5625 865.019531 427.460938 C 865.019531 338.355469 792.785156 266.125 703.683594 266.125 Z M 703.683594 266.125 " clip-rule="nonzero"/></clipPath><clipPath id="f00150bbca"><path d="M 565.773438 289.664062 L 841.773438 289.664062 L 841.773438 564.914062 L 565.773438 564.914062 Z M 565.773438 289.664062 " clip-rule="nonzero"/></clipPath></defs><g mask="url(#5204f2d042)"><g transform="matrix(1, 0, 0, 1, 527, 250)"><g clip-path="url(#b18dd7ed88)"><g clip-path="url(#fb857ffa99)"><g clip-path="url(#3eb660101e)"><path fill="#ed1d2b" d="M 0.152344 0.929688 L 353.210938 0.929688 L 353.210938 353.988281 L 0.152344 353.988281 Z M 0.152344 0.929688 " fill-opacity="1" fill-rule="nonzero"/></g></g></g></g></g><g clip-path="url(#10759294c5)"><g clip-path="url(#3357b879ae)"><path fill="#ed1d2b" d="M 504.472656 235.269531 L 549.832031 235.269531 L 549.832031 280.625 L 504.472656 280.625 Z M 504.472656 235.269531 " fill-opacity="1" fill-rule="nonzero"/></g></g><g clip-path="url(#aeaafc51cd)"><g clip-path="url(#a2cbd25cfe)"><path fill="#ed1d2b" d="M 542.34375 133.300781 L 578.070312 133.300781 L 578.070312 169.027344 L 542.34375 169.027344 Z M 542.34375 133.300781 " fill-opacity="1" fill-rule="nonzero"/></g></g><g clip-path="url(#290237a0e9)"><g clip-path="url(#383f9801e4)"><path fill="#ed1d2b" d="M 431.742188 163.242188 L 454.417969 163.242188 L 454.417969 185.917969 L 431.742188 185.917969 Z M 431.742188 163.242188 " fill-opacity="1" fill-rule="nonzero"/></g></g><g clip-path="url(#16057c938d)"><g clip-path="url(#929d5497b3)"><path fill="#ed1d2b" d="M 397.722656 248.402344 L 420.402344 248.402344 L 420.402344 271.078125 L 397.722656 271.078125 Z M 397.722656 248.402344 " fill-opacity="1" fill-rule="nonzero"/></g></g><g clip-path="url(#81627b42c0)"><g clip-path="url(#798c0eddda)"><path fill="#ed1d2b" d="M 443.078125 476.5625 L 465.757812 476.5625 L 465.757812 499.242188 L 443.078125 499.242188 Z M 443.078125 476.5625 " fill-opacity="1" fill-rule="nonzero"/></g></g><g clip-path="url(#5c61715c6b)"><g clip-path="url(#068e840b83)"><path fill="#ed1d2b" d="M 919.671875 237.0625 L 942.347656 237.0625 L 942.347656 259.738281 L 919.671875 259.738281 Z M 919.671875 237.0625 " fill-opacity="1" fill-rule="nonzero"/></g></g><g clip-path="url(#e2e540f632)"><g clip-path="url(#af1bf91e58)"><path fill="#ed1d2b" d="M 908.332031 453.882812 L 931.011719 453.882812 L 931.011719 476.5625 L 908.332031 476.5625 Z M 908.332031 453.882812 " fill-opacity="1" fill-rule="nonzero"/></g></g><g clip-path="url(#4e77287644)"><g clip-path="url(#db9d5c8840)"><path fill="#ed1d2b" d="M 1039.417969 203.042969 L 1062.097656 203.042969 L 1062.097656 225.722656 L 1039.417969 225.722656 Z M 1039.417969 203.042969 " fill-opacity="1" fill-rule="nonzero"/></g></g><g clip-path="url(#437338a6a4)"><g clip-path="url(#434b3783f7)"><path fill="#ed1d2b" d="M 635.945312 191.703125 L 658.625 191.703125 L 658.625 214.382812 L 635.945312 214.382812 Z M 635.945312 191.703125 " fill-opacity="1" fill-rule="nonzero"/></g></g><g clip-path="url(#511cd10fa3)"><g clip-path="url(#277dad7e22)"><path fill="#ed1d2b" d="M 748.566406 169.027344 L 771.242188 169.027344 L 771.242188 191.703125 L 748.566406 191.703125 Z M 748.566406 169.027344 " fill-opacity="1" fill-rule="nonzero"/></g></g><g clip-path="url(#9e0acdd2a6)"><g clip-path="url(#f8af7281a9)"><path fill="#ed1d2b" d="M 868.5625 153.726562 L 883.863281 153.726562 L 883.863281 169.027344 L 868.5625 169.027344 Z M 868.5625 153.726562 " fill-opacity="1" fill-rule="nonzero"/></g></g><g clip-path="url(#3064fc24a0)"><g clip-path="url(#edcdb9bac4)"><path fill="#ed1d2b" d="M 959.660156 302.191406 L 974.960938 302.191406 L 974.960938 317.492188 L 959.660156 317.492188 Z M 959.660156 302.191406 " fill-opacity="1" fill-rule="nonzero"/></g></g><g clip-path="url(#42b03c7824)"><g clip-path="url(#798e8856ba)"><path fill="#ed1d2b" d="M 1050.757812 450.660156 L 1066.058594 450.660156 L 1066.058594 465.957031 L 1050.757812 465.957031 Z M 1050.757812 450.660156 " fill-opacity="1" fill-rule="nonzero"/></g></g><g clip-path="url(#5d69b19b87)"><g clip-path="url(#a87e04d721)"><path fill="#ed1d2b" d="M 963.621094 557.1875 L 986.296875 557.1875 L 986.296875 579.863281 L 963.621094 579.863281 Z M 963.621094 557.1875 " fill-opacity="1" fill-rule="nonzero"/></g></g><g clip-path="url(#8954a234c3)"><g clip-path="url(#dce69af782)"><path fill="#ed1d2b" d="M 896.992188 624.761719 L 919.671875 624.761719 L 919.671875 647.441406 L 896.992188 647.441406 Z M 896.992188 624.761719 " fill-opacity="1" fill-rule="nonzero"/></g></g><g clip-path="url(#edbc45152f)"><g clip-path="url(#512b2c4b22)"><path fill="#ed1d2b" d="M 685.707031 660.488281 L 708.386719 660.488281 L 708.386719 683.164062 L 685.707031 683.164062 Z M 685.707031 660.488281 " fill-opacity="1" fill-rule="nonzero"/></g></g><g clip-path="url(#bab4dca5f6)"><g clip-path="url(#0959f1fd48)"><path fill="#ed1d2b" d="M 447.898438 636.101562 L 483.621094 636.101562 L 483.621094 671.824219 L 447.898438 671.824219 Z M 447.898438 636.101562 " fill-opacity="1" fill-rule="nonzero"/></g></g><g clip-path="url(#759fa0003c)"><g clip-path="url(#2d03f8d306)"><path fill="#ed1d2b" d="M 373.339844 369.238281 L 409.0625 369.238281 L 409.0625 404.964844 L 373.339844 404.964844 Z M 373.339844 369.238281 " fill-opacity="1" fill-rule="nonzero"/></g></g><g clip-path="url(#88aec1f04d)"><g clip-path="url(#5f53a9dd92)"><path fill="#ed1d2b" d="M 667.847656 127.515625 L 703.570312 127.515625 L 703.570312 163.242188 L 667.847656 163.242188 Z M 667.847656 127.515625 " fill-opacity="1" fill-rule="nonzero"/></g></g><g clip-path="url(#ff36bb4009)"><g clip-path="url(#8614226128)"><path fill="#ed1d2b" d="M 824.894531 257.945312 L 847.570312 257.945312 L 847.570312 280.625 L 824.894531 280.625 Z M 824.894531 257.945312 " fill-opacity="1" fill-rule="nonzero"/></g></g><g clip-path="url(#7bba511fee)"><g clip-path="url(#f07fb08d2a)"><path fill="#ffffff" d="M 542.34375 266.125 L 865.019531 266.125 L 865.019531 588.796875 L 542.34375 588.796875 Z M 542.34375 266.125 " fill-opacity="1" fill-rule="nonzero"/></g></g><g clip-path="url(#f00150bbca)"><path fill="#ed1d2b" d="M 841.789062 427.304688 C 841.789062 503.3125 780.003906 564.929688 703.789062 564.929688 C 627.574219 564.929688 565.789062 503.3125 565.789062 427.304688 C 565.789062 351.292969 627.574219 289.675781 703.789062 289.675781 C 780.003906 289.675781 841.789062 351.292969 841.789062 427.304688 " fill-opacity="1" fill-rule="nonzero"/></g><path fill="#ffffff" d="M 771.871094 359.40625 C 765.199219 352.753906 754.382812 352.753906 747.710938 359.40625 L 703.789062 403.210938 L 659.867188 359.40625 C 653.195312 352.753906 642.378906 352.753906 635.707031 359.40625 C 629.035156 366.0625 629.035156 376.847656 635.707031 383.5 L 679.628906 427.304688 L 635.707031 471.105469 C 629.035156 477.761719 629.035156 488.546875 635.707031 495.199219 C 642.378906 501.851562 653.195312 501.851562 659.867188 495.199219 L 703.789062 451.394531 L 747.710938 495.199219 C 754.382812 501.851562 765.199219 501.851562 771.871094 495.199219 C 778.542969 488.546875 778.542969 477.761719 771.871094 471.105469 L 727.949219 427.304688 L 771.871094 383.5 C 778.542969 376.847656 778.542969 366.0625 771.871094 359.40625 " fill-opacity="1" fill-rule="nonzero"/></svg>